<svg xmlns="http://www.w3.org/2000/svg" viewBox="0 0 1024 1024" width="1024" height="1024">
  <defs>
    <filter id="tile-shadow" x="-20%" y="-20%" width="140%" height="140%">
      <feDropShadow dx="0" dy="14" stdDeviation="20" flood-color="#000000" flood-opacity="0.12"/>
    </filter>
  </defs>

  <rect x="118" y="118" width="788" height="788" rx="180" fill="#FBFBFD" stroke="#E7E7EC" stroke-width="8" filter="url(#tile-shadow)"/>

  <!-- Open grip v2 in a rounded macOS-style tile -->
  <g id="mark" fill="#1A1A1F" transform="translate(290 252) scale(4.44 5.36)">
    <path d="M34 80 C26 60, 16 36, 20 14 L26 16 C28 22, 29 30, 28 42 C28 54, 32 66, 40 76 Z"/>
    <path d="M45 84 C44 64, 44 42, 50 10 L56 10 C56 14, 56 18, 56 24 C56 44, 56 66, 55 84 Z"/>
    <path d="M66 80 C74 60, 84 36, 80 14 L74 16 C72 22, 71 30, 72 42 C72 54, 68 66, 60 76 Z"/>
  </g>
</svg>
